<svg width="249" height="210" viewBox="0 0 249 210" fill="none" xmlns="http://www.w3.org/2000/svg">
<path d="M15.4424 138.671H33.8311V191H15.4424V138.671Z" fill="#29407D"/>
<path d="M66.0625 144.482H87.1514V167.895L66.0625 144.482ZM43.7432 158.222H43.5381C43.5381 153.528 44.8141 150.064 47.3662 147.831C49.9183 145.598 53.849 144.482 59.1582 144.482L87.1514 178.456C87.1514 182.968 85.9323 186.192 83.4941 188.129C81.1243 190.02 77.2507 190.966 71.873 190.966L43.7432 158.222ZM43.6406 167.45L63.9434 191H43.6406V167.45ZM112.923 191C101.644 191 96.0039 185.851 96.0039 175.551V156.342L110.462 146.874H115.589V191H112.923ZM120.545 156.137H136.917V167.587H120.545V156.137ZM120.579 176.406H139.549V179.413C139.549 183.287 138.364 186.147 135.994 187.992C133.419 189.998 129.261 191 123.519 191H120.579V176.406ZM173.113 156.137H191.98V191H189.827C183.903 191 179.642 189.963 177.044 187.89C174.424 185.794 173.113 182.33 173.113 177.499V156.137ZM148.436 173.979C148.436 171.472 148.766 169.148 149.427 167.006C150.088 164.841 151.113 162.95 152.503 161.332C155.511 157.869 159.817 156.137 165.423 156.137H168.055V191H166.277C160.535 191 156.092 189.428 152.947 186.283C149.939 183.276 148.436 179.174 148.436 173.979ZM225.511 156.137H228.587C236.972 156.137 241.974 158.985 243.592 164.682C244.139 166.528 244.412 168.658 244.412 171.073V191H225.511V156.137ZM200.867 156.137H219.871V191H200.867V156.137Z" fill="#C0427E"/>
<g clip-path="url(#clip0_11_238)">
<path d="M71.5943 77.1587C71.2279 76.7282 70.7441 76.4143 70.2041 76.2567C69.6641 76.099 69.0921 76.1048 68.5605 76.2731C68.0289 76.4415 67.5615 76.7649 67.2175 77.2025C66.8735 77.6401 66.6682 78.1722 66.6277 78.7316C66.5872 79.2909 66.7133 79.8524 66.9899 80.345C67.2666 80.8376 67.6815 81.2392 68.1821 81.4989C68.6827 81.7587 69.2465 81.8651 69.8023 81.8045C70.3581 81.7439 70.8809 81.5192 71.3046 81.1587C71.586 80.9193 71.8166 80.6259 71.9834 80.2953C72.1503 79.9647 72.25 79.6034 72.2769 79.232C72.3038 78.8605 72.2573 78.4863 72.1402 78.1305C72.0231 77.7748 71.8376 77.4446 71.5943 77.1587Z" fill="#29407D"/>
<path d="M131.93 24.2868C130.921 23.8867 129.821 23.7909 128.768 24.0113C127.715 24.2318 126.754 24.7588 126.006 25.5268C121.37 30.2221 117.016 35.1887 112.965 40.4014C112.36 38.5706 110.835 35.8629 106.987 33.6233C107.516 23.3604 99.5569 19.5063 99.4658 19.4635C99.1767 19.3285 98.8508 19.3004 98.5464 19.384C98.2419 19.4676 97.9788 19.6576 97.8041 19.9199C89.9227 31.7538 87.1203 50.8581 86.1576 64.8007L85.7775 68.1816C83.6521 66.6866 81.3419 65.4794 78.9078 64.5918C75.098 63.1429 70.9214 63.0815 67.1148 64.4183C63.994 65.5037 61.3772 67.6722 59.7319 70.5366C58.13 73.2021 57.557 76.3753 58.1194 79.4668L58.1173 79.4685C54.8651 85.7801 48.4751 97.2316 42.2166 103.01C41.9657 103.241 41.8143 103.56 41.7936 103.903C41.773 104.245 41.8847 104.585 42.1056 104.851C42.3265 105.117 42.6398 105.29 42.9805 105.332C43.3211 105.375 43.6632 105.286 43.9358 105.082L52.5741 98.659C52.6137 98.6541 52.6532 98.6544 52.6928 98.6459C56.2649 97.8868 65.2716 95.6995 71.7385 91.7898C71.7478 91.7844 71.7546 91.776 71.7645 91.7712C75.2492 92.1248 78.1154 94.58 78.8099 97.8675C78.8805 98.2007 78.9404 98.5471 78.9894 98.8871C79.6003 102.58 80.8008 106.159 82.5444 109.486C86.3529 116.709 92.1975 121.027 99.4522 121.971C109.408 123.265 116.701 119.14 121.109 115.39C121.9 114.717 122.594 114.057 123.198 113.441C123.256 113.443 123.315 113.449 123.373 113.452C127.648 113.57 131.873 112.649 135.684 110.766C139.842 116.823 147.474 126.935 154.946 131.668C155.827 132.234 156.86 132.508 157.896 132.45C158.932 132.393 159.918 132.006 160.712 131.347C160.742 131.321 160.772 131.295 160.803 131.269C161.58 130.622 162.132 129.745 162.383 128.759C162.634 127.774 162.572 126.73 162.204 125.773C161.587 124.172 160.807 122.638 159.875 121.194C162.646 122.213 165.551 122.794 168.487 122.915C169.319 122.944 170.139 122.741 170.856 122.329C171.573 121.917 172.16 121.313 172.55 120.582C172.941 119.852 173.121 119.024 173.07 118.191C173.019 117.357 172.739 116.55 172.261 115.86C171.724 115.092 171.131 114.366 170.487 113.686C173.517 113.895 176.552 113.573 179.455 112.734C180.087 112.543 180.673 112.225 181.176 111.799C181.951 111.137 182.491 110.241 182.718 109.241C182.909 108.431 182.883 107.582 182.643 106.778C182.403 105.975 181.957 105.245 181.351 104.663C178.368 101.817 174.937 99.4845 171.202 97.764C163.948 94.3467 153.589 90.4918 149.1 88.8597C147.739 87.1492 145.914 85.8692 143.85 85.1791C142.84 84.8309 140.623 84.1159 137.119 83.2409L133.454 82.4931C135.485 76.9571 134.131 72.4918 133.442 70.8089C137.719 63.0432 134.38 56.8859 132.897 54.7609C136.436 47.9798 133.656 42.5113 132.216 40.3831C134.694 37.2368 135.885 33.2515 135.552 29.2202C135.492 28.14 135.117 27.0963 134.473 26.2191C133.829 25.3419 132.945 24.6699 131.93 24.2868ZM59.3467 82.9181C60.248 84.6769 61.4107 86.2911 62.7942 87.7046L51.3571 96.2069C54.2651 91.9323 56.9324 87.4959 59.3467 82.9181ZM58.1734 94.4972L64.912 89.4872C65.7624 90.0825 66.6805 90.5725 67.6459 90.9463C64.5947 92.3893 61.4266 93.5769 58.1734 94.4972ZM152.284 92.8768C157.401 94.7938 164.649 97.6193 170.099 100.186C173.562 101.779 176.743 103.938 179.51 106.575C179.781 106.831 179.98 107.153 180.086 107.51C180.193 107.866 180.203 108.243 180.116 108.601C180.031 108.971 179.851 109.312 179.593 109.587C179.335 109.863 179.007 110.064 178.644 110.172C169.082 113.074 157.241 108.381 149.887 104.581C151.59 102.789 155.768 97.5974 152.284 92.8749L152.284 92.8768ZM137.933 86.2061C140.517 86.8862 142.192 87.4275 143.018 87.7122C144.696 88.2641 146.166 89.3309 147.218 90.7604C150.504 95.3322 146.084 99.6186 145.897 99.7956C145.881 99.8094 145.866 99.8241 145.853 99.8397C133.286 112.818 121.93 112.379 113.311 108.086C116.784 107.878 120.214 107.26 123.53 106.245C141.805 100.669 135.991 88.755 135.991 88.755C136.834 88.0753 137.5 87.2008 137.933 86.2042L137.933 86.2061ZM131.415 92.8867L131.418 92.8749L131.419 92.8816L131.415 92.8867ZM130.872 69.8808C127.784 72.9539 122.312 75.5703 116.517 78.3365C115.069 79.0283 113.572 79.7433 112.112 80.4673C104.664 84.1589 96.1492 93.9106 95.7903 94.3236C95.5614 94.5896 95.4483 94.9372 95.4758 95.2906C95.5033 95.644 95.6692 95.9742 95.9372 96.2091C96.2051 96.4439 96.5533 96.5643 96.9054 96.5437C97.2576 96.5232 97.5851 96.3635 97.8163 96.0995C97.9005 96.0021 106.35 86.33 113.326 82.8704C114.768 82.1559 116.257 81.4447 117.697 80.7574C122.949 78.2492 127.945 75.8604 131.394 73.0305C132.053 75.4196 132.538 80.0777 128.924 85.421C124.534 86.3025 120.254 87.6386 116.152 89.4079C115.827 89.5454 115.573 89.8074 115.444 90.1361C115.316 90.4648 115.323 90.8334 115.466 91.1607C115.608 91.4881 115.874 91.7474 116.204 91.8816C116.534 92.0158 116.901 92.0139 117.225 91.8763C120.942 90.275 124.811 89.0398 128.776 88.1878C129.211 90.2709 128.989 92.4277 128.141 94.3581C126.755 97.4218 123.734 99.8 119.167 101.426C111.568 104.13 104.058 103.75 98.5452 102.737C101.213 100.739 103.984 98.8836 106.848 97.1767C106.911 97.1392 106.971 97.0965 107.027 97.0488C107.281 96.8332 107.443 96.5282 107.481 96.1947C107.519 95.8612 107.43 95.5235 107.232 95.2489C107.034 94.9743 106.742 94.7828 106.413 94.7126C106.083 94.6424 105.742 94.6986 105.456 94.87C101.854 97.0028 98.4019 99.3774 95.1237 101.978C93.7556 101.622 92.6077 101.258 91.7409 100.957C91.4047 100.84 91.0381 100.861 90.7217 101.016C90.4053 101.17 90.165 101.445 90.0537 101.78C89.9424 102.115 89.9692 102.483 90.1283 102.803C90.2873 103.123 90.5655 103.368 90.9016 103.485C90.9016 103.485 95.7226 107.981 104.472 109.993C104.472 109.993 109.736 115.251 115.589 116.042C110.863 118.91 105.279 120.066 99.7545 119.317C93.3452 118.484 88.3601 114.789 84.9376 108.335C83.3302 105.265 82.2152 101.966 81.6345 98.5614C81.5764 98.1523 81.5051 97.7459 81.4222 97.3544C80.4461 92.7338 76.3493 89.3234 71.4595 89.0607C64.6013 88.693 61.3852 81.0395 61.3275 80.895C61.3199 80.8767 61.3083 80.8608 61.3006 80.8436C61.2929 80.8263 61.2884 80.807 61.2794 80.7888C61.2593 80.7488 59.2781 76.7145 62.0502 71.9025C63.3931 69.5739 65.5257 67.8131 68.0669 66.9345C71.2847 65.8136 74.8118 65.8737 78.0269 67.1041C82.5549 68.738 86.5584 71.5991 89.587 75.3655C90.0927 75.9911 90.6412 76.5809 91.2282 77.1306C89.9146 80.1997 88.8176 83.0288 87.9074 85.564C84.7723 83.2956 81.3481 81.4647 77.7307 80.1227C77.3956 80.0026 77.0287 80.0201 76.7108 80.1714C76.3929 80.3227 76.15 80.5954 76.0355 80.9295C75.921 81.2636 75.9442 81.6317 76.1002 81.9528C76.2562 82.274 76.532 82.5219 76.8671 82.642C80.4842 83.994 83.8956 85.8603 86.9953 88.1829C85.7503 91.7509 84.7273 95.396 83.9322 99.0975C83.8881 99.3285 83.9059 99.5681 83.9837 99.792C84.0616 100.016 84.1968 100.216 84.3756 100.372C84.5544 100.529 84.7704 100.635 85.0019 100.682C85.2333 100.728 85.4719 100.713 85.6935 100.637C85.8473 100.583 87.5386 99.973 90.0222 97.8592C91.3342 96.7305 92.5503 95.4949 93.6585 94.1645C95.9184 92.1263 98.7315 88.9228 101.82 83.9038C108.338 76.8686 121.354 63.3446 131.018 56.6792C132.298 58.6443 134.571 63.5531 130.872 69.8808ZM130.29 53.9158C123.072 58.7044 114.041 67.3204 107.016 74.5077C116.021 58.8189 129.016 47.7167 131.66 45.547C132.18 47.7378 132.14 50.6272 130.29 53.9158ZM132.887 29.3464C133.041 31.1638 132.826 32.9878 132.256 34.7083C131.687 36.4287 130.773 38.0101 129.571 39.357C122.993 44.9779 107.06 62.0922 99.2739 79.6378C94.7947 89.7328 90.0701 94.487 87.2791 96.5898C89.1335 89.6999 91.528 82.9756 94.4406 76.479C102.584 58.2238 113.92 41.6147 127.919 27.4252C128.311 27.0303 128.81 26.7594 129.356 26.6451C129.903 26.5309 130.473 26.5782 130.998 26.7814C131.524 26.9845 131.981 27.3348 132.317 27.79C132.652 28.2453 132.85 28.7859 132.887 29.3467L132.887 29.3464Z" fill="#29407D"/>
<path d="M112.081 94.2816L112.506 94.0663C112.821 93.9082 113.058 93.6303 113.165 93.2938C113.272 92.9572 113.241 92.5895 113.079 92.2716C112.916 91.9538 112.635 91.7117 112.298 91.5987C111.96 91.4857 111.594 91.5111 111.279 91.6691L110.841 91.8908C110.527 92.0505 110.291 92.3296 110.186 92.6667C110.08 93.0038 110.113 93.3713 110.277 93.6884C110.441 94.0055 110.724 94.2462 111.061 94.3575C111.399 94.4688 111.766 94.4416 112.079 94.282L112.081 94.2816Z" fill="#29407D"/>
</g>
<g filter="url(#filter0_d_11_238)">
<path d="M46.9797 108.837C46.6071 101.078 40.7534 95.0002 33.6537 95.0002C30.3853 95.0002 27.575 96.2318 25.5419 97.5067C23.5241 96.2247 20.7164 95.0002 17.3469 95.0002C10.2469 95.0002 4.39357 101.078 4.02036 108.837C3.80361 113.348 5.36282 116.546 6.55428 118.559C9.27512 123.155 19.8167 130.202 22.9826 132.253C23.7528 132.751 24.6342 133 25.5156 133C26.3967 133 27.2774 132.751 28.0472 132.253C31.2032 130.211 41.7118 123.187 44.448 118.555C45.6385 116.539 47.1961 113.339 46.9797 108.837ZM36.4355 113.854C35.5012 115.437 30.4597 119.406 25.5156 122.794C20.5497 119.393 15.4902 115.419 14.5623 113.851C13.594 112.215 13.2301 110.89 13.3077 109.281C13.4382 106.562 15.2882 104.266 17.3469 104.266C19.4528 104.266 21.4272 105.87 22.0393 106.516C22.8951 107.509 24.101 108.057 25.4152 108.091C26.7461 108.125 27.9761 107.559 28.8828 106.6C29.3208 106.137 31.5469 104.266 33.6534 104.266C35.7125 104.266 37.5625 106.562 37.6927 109.28C37.7696 110.886 37.4054 112.211 36.4355 113.854Z" fill="#C0427E"/>
</g>
<defs>
<filter id="filter0_d_11_238" x="0" y="95.0002" width="51" height="46" filterUnits="userSpaceOnUse" color-interpolation-filters="sRGB">
<feFlood flood-opacity="0" result="BackgroundImageFix"/>
<feColorMatrix in="SourceAlpha" type="matrix" values="0 0 0 0 0 0 0 0 0 0 0 0 0 0 0 0 0 0 127 0" result="hardAlpha"/>
<feOffset dy="4"/>
<feGaussianBlur stdDeviation="2"/>
<feComposite in2="hardAlpha" operator="out"/>
<feColorMatrix type="matrix" values="0 0 0 0 0 0 0 0 0 0 0 0 0 0 0 0 0 0 0.25 0"/>
<feBlend mode="normal" in2="BackgroundImageFix" result="effect1_dropShadow_11_238"/>
<feBlend mode="normal" in="SourceGraphic" in2="effect1_dropShadow_11_238" result="shape"/>
</filter>
<clipPath id="clip0_11_238">
<rect width="128.818" height="130.904" fill="white" transform="translate(19 83.4797) rotate(-40.3943)"/>
</clipPath>
</defs>
</svg>
